<?xml version="1.0" encoding="UTF-8" standalone="no"?>
<!DOCTYPE svg PUBLIC "-//W3C//DTD SVG 1.1//EN" "http://www.w3.org/Graphics/SVG/1.1/DTD/svg11.dtd">
<svg width="100%" height="100%" viewBox="0 0 216 252" version="1.1" xmlns="http://www.w3.org/2000/svg" xmlns:xlink="http://www.w3.org/1999/xlink" xml:space="preserve" style="fill-rule:evenodd;clip-rule:evenodd;stroke-linejoin:round;stroke-miterlimit:1.41421;">
    <g>
        <path d="M50.2,137L165.4,137L79,87.117L50.2,137Z" style="fill:none;stroke-width:0.4px;stroke:black;"/>
        <path d="M79,87.117L29.116,58.317L0.316,108.2L50.2,137L79,87.117Z" style="fill:none;stroke-width:0.4px;stroke:black;"/>
        <path d="M79,87.117L128.883,0.717L215.283,50.6L165.4,137L79,87.117Z" style="fill:none;stroke-width:0.4px;stroke:black;"/>
        <rect x="50.2" y="137" width="115.2" height="115.2" style="fill:none;stroke-width:0.4px;stroke:black;"/>
        <path d="M79,87.117L79,252.2" style="fill:none;stroke-width:0.4px;stroke:black;"/>
        <rect x="50.2" y="137" width="28.8" height="115.2" style="fill:rgb(255,153,153);fill-rule:nonzero;"/>
        <rect x="50.2" y="137" width="28.8" height="115.2" style="fill:none;stroke-width:0.4px;stroke:rgb(255,153,153);"/>
        <path d="M79,87.117L29.116,58.317L0.316,108.2L50.2,137L79,87.117Z" style="fill:rgb(255,153,153);fill-rule:nonzero;"/>
        <path d="M79,87.117L29.116,58.317L0.316,108.2L50.2,137L79,87.117Z" style="fill:none;stroke-width:0.4px;stroke:rgb(255,153,153);"/>
        <rect x="79" y="137" width="86.4" height="115.2" style="fill:rgb(153,204,255);fill-rule:nonzero;"/>
        <rect x="79" y="137" width="86.4" height="115.2" style="fill:none;stroke-width:0.4px;stroke:rgb(153,204,255);"/>
        <path d="M79,87.117L128.883,0.717L215.283,50.6L165.4,137L79,87.117Z" style="fill:rgb(153,204,255);fill-rule:nonzero;"/>
        <path d="M79,87.117L128.883,0.717L215.283,50.6L165.4,137L79,87.117Z" style="fill:none;stroke-width:0.4px;stroke:rgb(153,204,255);"/>
        <path d="M79,87.117L50.2,137L50.2,252.2L79,87.117Z" style="fill:none;stroke-width:1.2px;stroke:rgb(255,80,80);"/>
        <path d="M165.4,137L0.316,108.2L50.2,137L165.4,137Z" style="fill:none;stroke-width:1.2px;stroke:rgb(255,80,80);"/>
        <path d="M165.4,137L215.283,50.6L50.2,137L165.4,137Z" style="fill:none;stroke-width:1.2px;stroke:rgb(51,153,255);"/>
        <path d="M165.4,137L165.4,252.2L79,87.117L165.4,137Z" style="fill:none;stroke-width:1.2px;stroke:rgb(51,153,255);"/>
    </g>
</svg>
